<svg width="50" height="46" viewBox="0 0 50 46" fill="none" xmlns="http://www.w3.org/2000/svg">
<path fill-rule="evenodd" clip-rule="evenodd" d="M0 2.55556C0 1.14417 1.1193 0 2.5 0H7.50001C8.66416 0 9.67421 0.821381 9.93599 1.98091L16.9888 33.2222H38.048L44.298 7.66667H25C23.6193 7.66667 22.5 6.52249 22.5 5.11111C22.5 3.69973 23.6193 2.55556 25 2.55556H47.5C48.2698 2.55556 48.9968 2.91811 49.4706 3.5384C49.9443 4.15866 50.1121 4.96746 49.9253 5.73094L42.4253 36.3975C42.1473 37.5352 41.1473 38.3333 40 38.3333H15C13.8358 38.3333 12.8258 37.512 12.564 36.3525L5.51123 5.11111H2.5C1.1193 5.11111 0 3.96694 0 2.55556ZM20 5.11111C20 6.52249 18.8808 7.66667 17.5 7.66667C16.1193 7.66667 15 6.52249 15 5.11111C15 3.69973 16.1193 2.55556 17.5 2.55556C18.8808 2.55556 20 3.69973 20 5.11111ZM30 15.3333C30 13.9219 28.8808 12.7778 27.5 12.7778C26.1193 12.7778 25 13.9219 25 15.3333V19.3859L24.2678 18.6374C23.2915 17.6395 21.7085 17.6395 20.7323 18.6374C19.756 19.6354 19.756 21.2535 20.7323 22.2515L25.7323 27.3626C26.7085 28.3605 28.2915 28.3605 29.2678 27.3626L34.2678 22.2515C35.244 21.2535 35.244 19.6354 34.2678 18.6374C33.2915 17.6395 31.7085 17.6395 30.7323 18.6374L30 19.3859V15.3333ZM17.5 46C18.8808 46 20 44.8559 20 43.4444C20 42.033 18.8808 40.8889 17.5 40.8889C16.1193 40.8889 15 42.033 15 43.4444C15 44.8559 16.1193 46 17.5 46ZM40 43.4444C40 44.8559 38.8808 46 37.5 46C36.1193 46 35 44.8559 35 43.4444C35 42.033 36.1193 40.8889 37.5 40.8889C38.8808 40.8889 40 42.033 40 43.4444Z" fill="white"/>
</svg>
