<svg width="50" height="58" viewBox="0 0 50 58" fill="none" xmlns="http://www.w3.org/2000/svg">
<path d="M9.42016 39.9595H-0.0090332L12.0322 52.084V42.6178C12.0323 41.9207 11.7586 41.2515 11.27 40.7543C10.7815 40.257 10.1171 39.9716 9.42016 39.9595Z" fill="white"/>
<path d="M36.4388 0.297622H2.603C1.90526 0.307377 1.23954 0.592045 0.750473 1.08979C0.261401 1.58753 -0.0115242 2.25814 -0.00901607 2.95595V37.4772H9.42018C10.7853 37.4796 12.0938 38.023 13.059 38.9883C14.0243 39.9535 14.5677 41.262 14.5701 42.6271V52.0841H26.1112C25.4468 50.4486 25.107 48.6994 25.1108 46.9342C25.1279 43.2606 26.5993 39.7433 29.203 37.1517C31.8067 34.5601 35.3309 33.1053 39.0045 33.1053H39.1342V2.95595C39.1342 2.60371 39.0643 2.25498 38.9283 1.93002C38.7924 1.60506 38.5933 1.31035 38.3425 1.06301C38.0917 0.815668 37.7943 0.620635 37.4675 0.489241C37.1407 0.357847 36.791 0.292712 36.4388 0.297622ZM33.2247 29.5207H5.81708C5.64445 29.5356 5.4706 29.5145 5.30658 29.4586C5.14255 29.4028 4.99192 29.3135 4.86424 29.1963C4.73656 29.0792 4.63461 28.9368 4.56487 28.7782C4.49514 28.6196 4.45912 28.4482 4.45912 28.2749C4.45912 28.1016 4.49514 27.9303 4.56487 27.7716C4.63461 27.613 4.73656 27.4706 4.86424 27.3535C4.99192 27.2364 5.14255 27.147 5.30658 27.0912C5.4706 27.0354 5.64445 27.0142 5.81708 27.0291H33.234C33.4066 27.0142 33.5805 27.0354 33.7445 27.0912C33.9085 27.147 34.0592 27.2364 34.1868 27.3535C34.3145 27.4706 34.4165 27.613 34.4862 27.7716C34.5559 27.9303 34.5919 28.1016 34.5919 28.2749C34.5919 28.4482 34.5559 28.6196 34.4862 28.7782C34.4165 28.9368 34.3145 29.0792 34.1868 29.1963C34.0592 29.3135 33.9085 29.4028 33.7445 29.4586C33.5805 29.5145 33.4066 29.5356 33.234 29.5207H33.2247ZM33.2247 22.0459H5.81708C5.64445 22.0608 5.4706 22.0397 5.30658 21.9838C5.14255 21.928 4.99192 21.8387 4.86424 21.7215C4.73656 21.6044 4.63461 21.462 4.56487 21.3034C4.49514 21.1448 4.45912 20.9734 4.45912 20.8001C4.45912 20.6268 4.49514 20.4554 4.56487 20.2968C4.63461 20.1382 4.73656 19.9958 4.86424 19.8787C4.99192 19.7615 5.14255 19.6722 5.30658 19.6164C5.4706 19.5605 5.64445 19.5394 5.81708 19.5543H33.234C33.4066 19.5394 33.5805 19.5605 33.7445 19.6164C33.9085 19.6722 34.0592 19.7615 34.1868 19.8787C34.3145 19.9958 34.4165 20.1382 34.4862 20.2968C34.5559 20.4554 34.5919 20.6268 34.5919 20.8001C34.5919 20.9734 34.5559 21.1448 34.4862 21.3034C34.4165 21.462 34.3145 21.6044 34.1868 21.7215C34.0592 21.8387 33.9085 21.928 33.7445 21.9838C33.5805 22.0397 33.4066 22.0608 33.234 22.0459H33.2247ZM33.2247 14.5618H5.81708C5.64445 14.5767 5.4706 14.5556 5.30658 14.4997C5.14255 14.4439 4.99192 14.3546 4.86424 14.2374C4.73656 14.1203 4.63461 13.9779 4.56487 13.8193C4.49514 13.6607 4.45912 13.4893 4.45912 13.316C4.45912 13.1428 4.49514 12.9714 4.56487 12.8128C4.63461 12.6541 4.73656 12.5117 4.86424 12.3946C4.99192 12.2775 5.14255 12.1881 5.30658 12.1323C5.4706 12.0765 5.64445 12.0553 5.81708 12.0702H33.234C33.4066 12.0553 33.5805 12.0765 33.7445 12.1323C33.9085 12.1881 34.0592 12.2775 34.1868 12.3946C34.3145 12.5117 34.4165 12.6541 34.4862 12.8128C34.5559 12.9714 34.5919 13.1428 34.5919 13.316C34.5919 13.4893 34.5559 13.6607 34.4862 13.8193C34.4165 13.9779 34.3145 14.1203 34.1868 14.2374C34.0592 14.3546 33.9085 14.4439 33.7445 14.4997C33.5805 14.5556 33.4066 14.5767 33.234 14.5618H33.2247ZM33.2247 7.08701H5.81708C5.64445 7.10191 5.4706 7.08077 5.30658 7.02493C5.14255 6.96909 4.99192 6.87977 4.86424 6.76263C4.73656 6.64549 4.63461 6.5031 4.56487 6.34448C4.49514 6.18586 4.45912 6.01448 4.45912 5.84121C4.45912 5.66794 4.49514 5.49656 4.56487 5.33794C4.63461 5.17932 4.73656 5.03693 4.86424 4.91979C4.99192 4.80265 5.14255 4.71333 5.30658 4.65749C5.4706 4.60165 5.64445 4.58051 5.81708 4.59541H33.234C33.4066 4.58051 33.5805 4.60165 33.7445 4.65749C33.9085 4.71333 34.0592 4.80265 34.1868 4.91979C34.3145 5.03693 34.4165 5.17932 34.4862 5.33794C34.5559 5.49656 34.5919 5.66794 34.5919 5.84121C34.5919 6.01448 34.5559 6.18586 34.4862 6.34448C34.4165 6.5031 34.3145 6.64549 34.1868 6.76263C34.0592 6.87977 33.9085 6.96909 33.7445 7.02493C33.5805 7.08077 33.4066 7.10191 33.234 7.08701H33.2247Z" fill="white"/>
<path d="M39.1064 35.884H38.9767C36.04 35.884 33.2227 37.0461 31.14 39.1166C29.0574 41.187 27.8788 43.9975 27.8617 46.9342C27.8581 48.7309 28.3005 50.5005 29.1492 52.0841C30.0573 53.8132 31.407 55.2711 33.0612 56.3093C34.7155 57.3476 36.6151 57.9293 38.5671 57.9953C40.5191 58.0612 42.4537 57.6091 44.1742 56.6848C45.8947 55.7606 47.3398 54.3972 48.3625 52.7333C49.3852 51.0694 49.949 49.1643 49.9967 47.2118C50.0443 45.2593 49.574 43.3291 48.6336 41.6173C47.6933 39.9055 46.3163 38.4733 44.6429 37.4662C42.9695 36.4592 41.0592 35.9133 39.1064 35.884ZM35.142 52.5565L31.4833 48.9534C31.2033 48.6733 31.046 48.2935 31.046 47.8975C31.046 47.5014 31.2033 47.1216 31.4833 46.8415C31.7634 46.5615 32.1432 46.4042 32.5393 46.4042C32.9353 46.4042 33.3151 46.5615 33.5952 46.8415L36.1516 49.398L44.2748 41.2933C44.5562 41.0122 44.9376 40.8543 45.3354 40.8543C45.7331 40.8543 46.1146 41.0122 46.3959 41.2933C46.6742 41.5743 46.8303 41.9538 46.8303 42.3492C46.8303 42.7447 46.6742 43.1242 46.3959 43.4052L37.2261 52.575C36.9447 52.8465 36.5685 52.9974 36.1775 52.9957C35.7866 52.994 35.4117 52.8397 35.1328 52.5657L35.142 52.5565Z" fill="white"/>
</svg>
