<svg width="0" height="0" class="hidden">
  <symbol xmlns="http://www.w3.org/2000/svg" viewBox="0 0 19 14" id="arrow">
    <path d="M18.4095 6.18333L10.9095 0.35C10.3095 -0.116667 9.4095 -0.116667 8.8095 0.35C8.2095 0.816667 8.2095 1.51667 8.8095 1.98333L13.7595 5.83333H2.3595C1.4595 5.83333 0.859497 6.3 0.859497 7C0.859497 7.7 1.4595 8.16667 2.3595 8.16667H13.7595L8.8095 12.0167C8.2095 12.4833 8.2095 13.1833 8.8095 13.65C9.4095 14.1167 10.3095 14.1167 10.9095 13.65L18.4095 7.81667C19.0095 7.46667 19.0095 6.65 18.4095 6.18333Z" fill="currentColor"></path>
  </symbol>
  <symbol xmlns="http://www.w3.org/2000/svg" viewBox="0 0 53 35" id="burger">
    <path d="M51.3238 15.8283H3.69154C3.04952 15.8283 2.40191 15.8227 1.75989 15.8283H1.67615C0.799654 15.8283 -0.0377633 16.5973 0.00131623 17.5C0.0403957 18.4083 0.738244 19.1717 1.67615 19.1717H49.3085C49.9505 19.1717 50.5981 19.1773 51.2401 19.1717H51.3238C52.2003 19.1717 53.0378 18.4027 52.9987 17.5C52.954 16.5917 52.2618 15.8283 51.3238 15.8283ZM51.3238 0.00247665H3.69154C3.04952 0.00247665 2.40191 -0.00309581 1.75989 0.00247665H1.67615C0.799654 0.00247665 -0.0377633 0.771476 0.00131623 1.67421C0.0403957 2.58253 0.738244 3.34595 1.67615 3.34595H49.3085C49.9505 3.34595 50.5981 3.35152 51.2401 3.34595H51.3238C52.2003 3.34595 53.0378 2.57695 52.9987 1.67421C52.954 0.765904 52.2618 0.00247665 51.3238 0.00247665ZM51.3238 31.654H3.69154C3.04952 31.654 2.40191 31.6485 1.75989 31.654H1.67615C0.799654 31.654 -0.0377633 32.423 0.00131623 33.3258C0.0403957 34.2341 0.738244 34.9975 1.67615 34.9975H49.3085C49.9505 34.9975 50.5981 35.0031 51.2401 34.9975H51.3238C52.2003 34.9975 53.0378 34.2285 52.9987 33.3258C52.954 32.4175 52.2618 31.654 51.3238 31.654Z" fill="currentColor"></path>
  </symbol>
  <symbol xmlns="http://www.w3.org/2000/svg" viewBox="0 0 50 46" id="cart">
    <path fill-rule="evenodd" clip-rule="evenodd" d="M0 2.55556C0 1.14417 1.1193 0 2.5 0H7.50001C8.66416 0 9.67421 0.821381 9.93599 1.98091L16.9888 33.2222H38.048L44.298 7.66667H25C23.6193 7.66667 22.5 6.52249 22.5 5.11111C22.5 3.69973 23.6193 2.55556 25 2.55556H47.5C48.2698 2.55556 48.9968 2.91811 49.4706 3.5384C49.9443 4.15866 50.1121 4.96746 49.9253 5.73094L42.4253 36.3975C42.1473 37.5352 41.1473 38.3333 40 38.3333H15C13.8358 38.3333 12.8258 37.512 12.564 36.3525L5.51123 5.11111H2.5C1.1193 5.11111 0 3.96694 0 2.55556ZM20 5.11111C20 6.52249 18.8808 7.66667 17.5 7.66667C16.1193 7.66667 15 6.52249 15 5.11111C15 3.69973 16.1193 2.55556 17.5 2.55556C18.8808 2.55556 20 3.69973 20 5.11111ZM30 15.3333C30 13.9219 28.8808 12.7778 27.5 12.7778C26.1193 12.7778 25 13.9219 25 15.3333V19.3859L24.2678 18.6374C23.2915 17.6395 21.7085 17.6395 20.7323 18.6374C19.756 19.6354 19.756 21.2535 20.7323 22.2515L25.7323 27.3626C26.7085 28.3605 28.2915 28.3605 29.2678 27.3626L34.2678 22.2515C35.244 21.2535 35.244 19.6354 34.2678 18.6374C33.2915 17.6395 31.7085 17.6395 30.7323 18.6374L30 19.3859V15.3333ZM17.5 46C18.8808 46 20 44.8559 20 43.4444C20 42.033 18.8808 40.8889 17.5 40.8889C16.1193 40.8889 15 42.033 15 43.4444C15 44.8559 16.1193 46 17.5 46ZM40 43.4444C40 44.8559 38.8808 46 37.5 46C36.1193 46 35 44.8559 35 43.4444C35 42.033 36.1193 40.8889 37.5 40.8889C38.8808 40.8889 40 42.033 40 43.4444Z" fill="currentColor"></path>
  </symbol>
  <symbol xmlns="http://www.w3.org/2000/svg" viewBox="0 0 56 57" id="coin">
    <path d="M28.5172 13.2197C19.9466 13.2197 13.0197 20.1467 13.0197 28.7173C13.0197 37.2879 19.9466 44.2148 28.5172 44.2148C37.0878 44.2148 44.0148 37.2879 44.0148 28.7173C44.0148 20.1467 37.0878 13.2197 28.5172 13.2197ZM32.509 34.2353C31.6872 34.9398 30.6305 35.292 29.339 35.4094V36.8183H28.0476V35.4094C26.2865 35.1746 24.6428 34.4702 23.2339 33.2961L24.6428 31.535C25.6995 32.4743 26.8735 33.0613 28.0476 33.2961V29.5391C26.5213 29.1869 25.4647 28.7173 24.7602 28.1302C24.1732 27.5432 23.821 26.604 23.821 25.5473C23.821 24.3733 24.1732 23.5514 24.995 22.7296C25.8169 22.0252 26.7561 21.6729 28.0476 21.5555V20.6163H29.339V21.6729C30.7479 21.7903 32.1568 22.26 33.4482 23.1992L32.1568 24.9603C31.3349 24.3733 30.3957 24.021 29.339 23.7862V27.4258C30.8653 27.778 31.922 28.2477 32.6264 28.8347C33.3308 29.4217 33.6831 30.361 33.6831 31.4176C33.8005 32.5917 33.3308 33.5309 32.509 34.2353Z" fill="currentColor"></path>
    <path d="M26.1691 25.3126C26.1691 25.7822 26.2865 26.1345 26.5213 26.3693C26.7561 26.6041 27.2257 26.8389 28.0476 27.0737V23.6689C27.4605 23.6689 26.9909 23.9038 26.6387 24.1386C26.4039 24.4908 26.1691 24.843 26.1691 25.3126Z" fill="currentColor"></path>
    <path d="M29.339 29.7739V33.2961C29.926 33.1787 30.513 33.0613 30.8653 32.7091C31.2175 32.3569 31.4523 32.0046 31.4523 31.535C31.4523 31.0654 31.3349 30.7132 30.9827 30.4784C30.6305 30.2435 30.1608 30.0087 29.339 29.7739Z" fill="currentColor"></path>
    <path d="M5.50572 27.3084C5.85794 21.5555 8.32346 16.1548 12.4327 12.163C21.3555 3.47501 35.5616 3.47501 44.4844 12.0456L42.1363 11.6934C40.8448 11.576 39.7882 12.3978 39.5534 13.5719C39.436 14.746 40.2578 15.92 41.4319 16.1548L49.4154 17.2115C49.5329 17.2115 49.6503 17.2115 49.7677 17.2115C50.2373 17.2115 50.7069 17.0941 51.1765 16.7419C51.6462 16.3896 51.9984 15.8026 51.9984 15.2156L53.055 7.232C53.1724 5.94053 52.3506 4.88388 51.1765 4.64907C49.8851 4.53167 48.8284 5.35351 48.5936 6.52756L48.2414 9.22789C43.0755 3.94464 36.266 1.0095 28.8695 0.89209C21.5903 1.0095 14.546 3.82723 9.2627 8.99308C4.33167 13.8067 1.39652 20.264 0.9269 27.0736C0.809495 28.365 1.74874 29.4217 3.0402 29.4217H3.15761C4.44907 29.4217 5.38832 28.4824 5.50572 27.3084Z" fill="currentColor"></path>
    <path d="M53.9943 28.0128C52.8202 27.8954 51.6461 28.8347 51.6461 30.1261C51.2939 35.879 48.8284 41.2797 44.7192 45.2715C35.679 53.9595 21.4729 53.9595 12.5501 45.2715L15.133 45.5063C16.4244 45.6237 17.4811 44.6844 17.5985 43.5104C17.7159 42.2189 16.7767 41.1623 15.6026 41.0449L7.3842 40.223C6.79717 40.1056 6.21015 40.3404 5.74052 40.6927C5.2709 41.0449 5.03609 41.6319 4.91868 42.2189L4.09684 50.2025C3.97944 51.494 4.91868 52.5506 6.09274 52.668C6.21015 52.668 6.21015 52.668 6.32755 52.668C7.50161 52.668 8.44085 51.8462 8.55826 50.6721L8.79307 48.0892C14.1937 53.6073 21.3555 56.3076 28.3998 56.3076C35.3268 56.3076 42.2537 53.7247 47.6543 48.5588C52.5854 43.7452 55.5205 37.2879 55.9902 30.4784C56.1076 29.1869 55.1683 28.1302 53.9943 28.0128Z" fill="currentColor"></path>
  </symbol>
  <symbol xmlns="http://www.w3.org/2000/svg" viewBox="0 0 40 50" id="document">
    <path d="M27.5 15H38.5L25 1.5V12.5C25 14 26 15 27.5 15ZM27.5 20C23.25 20 20 16.75 20 12.5V0H7.5C3.25 0 0 3.25 0 7.5V42.5C0 46.75 3.25 50 7.5 50H32.5C36.75 50 40 46.75 40 42.5V20H27.5ZM12.5 15H15C16.5 15 17.5 16 17.5 17.5C17.5 19 16.5 20 15 20H12.5C11 20 10 19 10 17.5C10 16 11 15 12.5 15ZM27.5 40H12.5C11 40 10 39 10 37.5C10 36 11 35 12.5 35H27.5C29 35 30 36 30 37.5C30 39 29 40 27.5 40ZM27.5 30H12.5C11 30 10 29 10 27.5C10 26 11 25 12.5 25H27.5C29 25 30 26 30 27.5C30 29 29 30 27.5 30Z" fill="currentColor"></path>
  </symbol>
  <symbol xmlns="http://www.w3.org/2000/svg" viewBox="0 0 50 58" id="document-2">
    <path d="M9.42016 39.9595H-0.0090332L12.0322 52.084V42.6178C12.0323 41.9207 11.7586 41.2515 11.27 40.7543C10.7815 40.257 10.1171 39.9716 9.42016 39.9595Z" fill="currentColor"></path>
    <path d="M36.4388 0.297622H2.603C1.90526 0.307377 1.23954 0.592045 0.750473 1.08979C0.261401 1.58753 -0.0115242 2.25814 -0.00901607 2.95595V37.4772H9.42018C10.7853 37.4796 12.0938 38.023 13.059 38.9883C14.0243 39.9535 14.5677 41.262 14.5701 42.6271V52.0841H26.1112C25.4468 50.4486 25.107 48.6994 25.1108 46.9342C25.1279 43.2606 26.5993 39.7433 29.203 37.1517C31.8067 34.5601 35.3309 33.1053 39.0045 33.1053H39.1342V2.95595C39.1342 2.60371 39.0643 2.25498 38.9283 1.93002C38.7924 1.60506 38.5933 1.31035 38.3425 1.06301C38.0917 0.815668 37.7943 0.620635 37.4675 0.489241C37.1407 0.357847 36.791 0.292712 36.4388 0.297622ZM33.2247 29.5207H5.81708C5.64445 29.5356 5.4706 29.5145 5.30658 29.4586C5.14255 29.4028 4.99192 29.3135 4.86424 29.1963C4.73656 29.0792 4.63461 28.9368 4.56487 28.7782C4.49514 28.6196 4.45912 28.4482 4.45912 28.2749C4.45912 28.1016 4.49514 27.9303 4.56487 27.7716C4.63461 27.613 4.73656 27.4706 4.86424 27.3535C4.99192 27.2364 5.14255 27.147 5.30658 27.0912C5.4706 27.0354 5.64445 27.0142 5.81708 27.0291H33.234C33.4066 27.0142 33.5805 27.0354 33.7445 27.0912C33.9085 27.147 34.0592 27.2364 34.1868 27.3535C34.3145 27.4706 34.4165 27.613 34.4862 27.7716C34.5559 27.9303 34.5919 28.1016 34.5919 28.2749C34.5919 28.4482 34.5559 28.6196 34.4862 28.7782C34.4165 28.9368 34.3145 29.0792 34.1868 29.1963C34.0592 29.3135 33.9085 29.4028 33.7445 29.4586C33.5805 29.5145 33.4066 29.5356 33.234 29.5207H33.2247ZM33.2247 22.0459H5.81708C5.64445 22.0608 5.4706 22.0397 5.30658 21.9838C5.14255 21.928 4.99192 21.8387 4.86424 21.7215C4.73656 21.6044 4.63461 21.462 4.56487 21.3034C4.49514 21.1448 4.45912 20.9734 4.45912 20.8001C4.45912 20.6268 4.49514 20.4554 4.56487 20.2968C4.63461 20.1382 4.73656 19.9958 4.86424 19.8787C4.99192 19.7615 5.14255 19.6722 5.30658 19.6164C5.4706 19.5605 5.64445 19.5394 5.81708 19.5543H33.234C33.4066 19.5394 33.5805 19.5605 33.7445 19.6164C33.9085 19.6722 34.0592 19.7615 34.1868 19.8787C34.3145 19.9958 34.4165 20.1382 34.4862 20.2968C34.5559 20.4554 34.5919 20.6268 34.5919 20.8001C34.5919 20.9734 34.5559 21.1448 34.4862 21.3034C34.4165 21.462 34.3145 21.6044 34.1868 21.7215C34.0592 21.8387 33.9085 21.928 33.7445 21.9838C33.5805 22.0397 33.4066 22.0608 33.234 22.0459H33.2247ZM33.2247 14.5618H5.81708C5.64445 14.5767 5.4706 14.5556 5.30658 14.4997C5.14255 14.4439 4.99192 14.3546 4.86424 14.2374C4.73656 14.1203 4.63461 13.9779 4.56487 13.8193C4.49514 13.6607 4.45912 13.4893 4.45912 13.316C4.45912 13.1428 4.49514 12.9714 4.56487 12.8128C4.63461 12.6541 4.73656 12.5117 4.86424 12.3946C4.99192 12.2775 5.14255 12.1881 5.30658 12.1323C5.4706 12.0765 5.64445 12.0553 5.81708 12.0702H33.234C33.4066 12.0553 33.5805 12.0765 33.7445 12.1323C33.9085 12.1881 34.0592 12.2775 34.1868 12.3946C34.3145 12.5117 34.4165 12.6541 34.4862 12.8128C34.5559 12.9714 34.5919 13.1428 34.5919 13.316C34.5919 13.4893 34.5559 13.6607 34.4862 13.8193C34.4165 13.9779 34.3145 14.1203 34.1868 14.2374C34.0592 14.3546 33.9085 14.4439 33.7445 14.4997C33.5805 14.5556 33.4066 14.5767 33.234 14.5618H33.2247ZM33.2247 7.08701H5.81708C5.64445 7.10191 5.4706 7.08077 5.30658 7.02493C5.14255 6.96909 4.99192 6.87977 4.86424 6.76263C4.73656 6.64549 4.63461 6.5031 4.56487 6.34448C4.49514 6.18586 4.45912 6.01448 4.45912 5.84121C4.45912 5.66794 4.49514 5.49656 4.56487 5.33794C4.63461 5.17932 4.73656 5.03693 4.86424 4.91979C4.99192 4.80265 5.14255 4.71333 5.30658 4.65749C5.4706 4.60165 5.64445 4.58051 5.81708 4.59541H33.234C33.4066 4.58051 33.5805 4.60165 33.7445 4.65749C33.9085 4.71333 34.0592 4.80265 34.1868 4.91979C34.3145 5.03693 34.4165 5.17932 34.4862 5.33794C34.5559 5.49656 34.5919 5.66794 34.5919 5.84121C34.5919 6.01448 34.5559 6.18586 34.4862 6.34448C34.4165 6.5031 34.3145 6.64549 34.1868 6.76263C34.0592 6.87977 33.9085 6.96909 33.7445 7.02493C33.5805 7.08077 33.4066 7.10191 33.234 7.08701H33.2247Z" fill="currentColor"></path>
    <path d="M39.1064 35.884H38.9767C36.04 35.884 33.2227 37.0461 31.14 39.1166C29.0574 41.187 27.8788 43.9975 27.8617 46.9342C27.8581 48.7309 28.3005 50.5005 29.1492 52.0841C30.0573 53.8132 31.407 55.2711 33.0612 56.3093C34.7155 57.3476 36.6151 57.9293 38.5671 57.9953C40.5191 58.0612 42.4537 57.6091 44.1742 56.6848C45.8947 55.7606 47.3398 54.3972 48.3625 52.7333C49.3852 51.0694 49.949 49.1643 49.9967 47.2118C50.0443 45.2593 49.574 43.3291 48.6336 41.6173C47.6933 39.9055 46.3163 38.4733 44.6429 37.4662C42.9695 36.4592 41.0592 35.9133 39.1064 35.884ZM35.142 52.5565L31.4833 48.9534C31.2033 48.6733 31.046 48.2935 31.046 47.8975C31.046 47.5014 31.2033 47.1216 31.4833 46.8415C31.7634 46.5615 32.1432 46.4042 32.5393 46.4042C32.9353 46.4042 33.3151 46.5615 33.5952 46.8415L36.1516 49.398L44.2748 41.2933C44.5562 41.0122 44.9376 40.8543 45.3354 40.8543C45.7331 40.8543 46.1146 41.0122 46.3959 41.2933C46.6742 41.5743 46.8303 41.9538 46.8303 42.3492C46.8303 42.7447 46.6742 43.1242 46.3959 43.4052L37.2261 52.575C36.9447 52.8465 36.5685 52.9974 36.1775 52.9957C35.7866 52.994 35.4117 52.8397 35.1328 52.5657L35.142 52.5565Z" fill="currentColor"></path>
  </symbol>
  <symbol xmlns="http://www.w3.org/2000/svg" viewBox="0 0 21 15" id="envelope">
    <path d="M6.41524 7.5L0 12.2048V2.79519L6.41524 7.5ZM14.5848 7.5L21 12.2048V2.79519L14.5848 7.5ZM13.6474 8.18942L10.7791 10.2923C10.6946 10.3529 10.5973 10.3846 10.5 10.3846C10.4027 10.3846 10.3054 10.3529 10.2209 10.2923L7.35256 8.18942L0.425122 13.2692L0.0230488 13.5635C0.148537 14.3769 0.778537 15 1.53659 15H19.4634C20.2215 15 20.8515 14.3798 20.977 13.5635L20.5723 13.2692L13.6474 8.18942ZM10.5 9.11827L20.5723 1.73077L20.977 1.43654C20.8515 0.620192 20.2215 0 19.4634 0H1.53659C0.778537 0 0.148537 0.623077 0.0230488 1.43654L0.425122 1.73077L10.5 9.11827Z" fill="currentColor"></path>
  </symbol>
  <symbol xmlns="http://www.w3.org/2000/svg" viewBox="0 0 24 24" id="phone">
    <path d="M22.9042 17.4136C21.9089 16.3909 19.0797 14.475 17.2254 14.475C16.7959 14.475 16.421 14.5705 16.1142 14.7682C15.2075 15.3477 14.4849 15.7977 14.1372 15.7977C13.9463 15.7977 13.7418 15.6273 13.2918 15.2386L13.2169 15.1705C11.9693 14.0864 11.7034 13.8068 11.2194 13.3023L11.0967 13.1727C11.0081 13.0841 10.9331 13.0023 10.8581 12.9273C10.4354 12.4909 10.1286 12.1773 9.04468 10.95L8.99696 10.8955C8.47884 10.3091 8.13798 9.92727 8.11753 9.64773C8.09708 9.375 8.33568 8.93182 8.94242 8.10682C9.67869 7.11136 9.70595 5.88409 9.03104 4.45909C8.49248 3.33409 7.61305 2.25682 6.83588 1.30909L6.7677 1.22727C6.09961 0.409091 5.32244 0 4.45665 0C3.49541 0 2.69779 0.518182 2.27512 0.790909C2.24103 0.811364 2.20694 0.838636 2.17286 0.859091C1.22525 1.45909 0.536707 2.28409 0.277651 3.12273C-0.110934 4.38409 -0.369991 6.02046 1.49113 9.42273C3.10001 12.3682 4.55891 14.3455 6.87678 16.725C9.05831 18.9614 10.0264 19.6841 12.1943 21.2523C14.6076 22.9977 16.9255 24 18.548 24C20.0546 24 21.2408 24 22.9315 21.9614C24.704 19.8205 23.9677 18.5114 22.9042 17.4136Z" fill="currentColor"></path>
  </symbol>
  <symbol xmlns="http://www.w3.org/2000/svg" viewBox="0 0 16 20" id="pin">
    <path d="M8 0C5.879 0.00238211 3.84555 0.846002 2.34578 2.34578C0.846002 3.84555 0.00238211 5.879 0 8C0 11.255 2.363 13.958 4.866 16.819C5.658 17.725 6.478 18.662 7.208 19.61C7.30142 19.7312 7.4214 19.8293 7.55871 19.8968C7.69602 19.9644 7.84699 19.9995 8 19.9995C8.15301 19.9995 8.30398 19.9644 8.44129 19.8968C8.5786 19.8293 8.69858 19.7312 8.792 19.61C9.522 18.662 10.342 17.725 11.134 16.819C13.637 13.958 16 11.255 16 8C15.9976 5.879 15.154 3.84555 13.6542 2.34578C12.1544 0.846002 10.121 0.00238211 8 0ZM8 11C7.40666 11 6.82664 10.8241 6.33329 10.4944C5.83994 10.1648 5.45542 9.69623 5.22836 9.14805C5.0013 8.59987 4.94189 7.99667 5.05764 7.41473C5.1734 6.83279 5.45912 6.29824 5.87868 5.87868C6.29824 5.45912 6.83279 5.1734 7.41473 5.05764C7.99667 4.94189 8.59987 5.0013 9.14805 5.22836C9.69623 5.45542 10.1648 5.83994 10.4944 6.33329C10.8241 6.82664 11 7.40666 11 8C11 8.79565 10.6839 9.55871 10.1213 10.1213C9.55871 10.6839 8.79565 11 8 11Z" fill="currentColor"></path>
  </symbol>
  <symbol xmlns="http://www.w3.org/2000/svg" viewBox="0 0 490 490" xml:space="preserve" id="cross"><polygon points="456.851,0 245,212.564 33.149,0 0.708,32.337 212.669,245.004 0.708,457.678 33.149,490 245,277.443 456.851,490 
	489.292,457.678 277.331,245.004 489.292,32.337" fill="currentColor"/></symbol>
</svg>