<svg width="53" height="35" viewBox="0 0 53 35" fill="none" xmlns="http://www.w3.org/2000/svg">
<path d="M51.3238 15.8283H3.69154C3.04952 15.8283 2.40191 15.8227 1.75989 15.8283H1.67615C0.799654 15.8283 -0.0377633 16.5973 0.00131623 17.5C0.0403957 18.4083 0.738244 19.1717 1.67615 19.1717H49.3085C49.9505 19.1717 50.5981 19.1773 51.2401 19.1717H51.3238C52.2003 19.1717 53.0378 18.4027 52.9987 17.5C52.954 16.5917 52.2618 15.8283 51.3238 15.8283ZM51.3238 0.00247665H3.69154C3.04952 0.00247665 2.40191 -0.00309581 1.75989 0.00247665H1.67615C0.799654 0.00247665 -0.0377633 0.771476 0.00131623 1.67421C0.0403957 2.58253 0.738244 3.34595 1.67615 3.34595H49.3085C49.9505 3.34595 50.5981 3.35152 51.2401 3.34595H51.3238C52.2003 3.34595 53.0378 2.57695 52.9987 1.67421C52.954 0.765904 52.2618 0.00247665 51.3238 0.00247665ZM51.3238 31.654H3.69154C3.04952 31.654 2.40191 31.6485 1.75989 31.654H1.67615C0.799654 31.654 -0.0377633 32.423 0.00131623 33.3258C0.0403957 34.2341 0.738244 34.9975 1.67615 34.9975H49.3085C49.9505 34.9975 50.5981 35.0031 51.2401 34.9975H51.3238C52.2003 34.9975 53.0378 34.2285 52.9987 33.3258C52.954 32.4175 52.2618 31.654 51.3238 31.654Z" fill="white"/>
</svg>
