<svg width="56" height="57" viewBox="0 0 56 57" fill="none" xmlns="http://www.w3.org/2000/svg">
<path d="M28.5172 13.2197C19.9466 13.2197 13.0197 20.1467 13.0197 28.7173C13.0197 37.2879 19.9466 44.2148 28.5172 44.2148C37.0878 44.2148 44.0148 37.2879 44.0148 28.7173C44.0148 20.1467 37.0878 13.2197 28.5172 13.2197ZM32.509 34.2353C31.6872 34.9398 30.6305 35.292 29.339 35.4094V36.8183H28.0476V35.4094C26.2865 35.1746 24.6428 34.4702 23.2339 33.2961L24.6428 31.535C25.6995 32.4743 26.8735 33.0613 28.0476 33.2961V29.5391C26.5213 29.1869 25.4647 28.7173 24.7602 28.1302C24.1732 27.5432 23.821 26.604 23.821 25.5473C23.821 24.3733 24.1732 23.5514 24.995 22.7296C25.8169 22.0252 26.7561 21.6729 28.0476 21.5555V20.6163H29.339V21.6729C30.7479 21.7903 32.1568 22.26 33.4482 23.1992L32.1568 24.9603C31.3349 24.3733 30.3957 24.021 29.339 23.7862V27.4258C30.8653 27.778 31.922 28.2477 32.6264 28.8347C33.3308 29.4217 33.6831 30.361 33.6831 31.4176C33.8005 32.5917 33.3308 33.5309 32.509 34.2353Z" fill="white"/>
<path d="M26.1691 25.3126C26.1691 25.7822 26.2865 26.1345 26.5213 26.3693C26.7561 26.6041 27.2257 26.8389 28.0476 27.0737V23.6689C27.4605 23.6689 26.9909 23.9038 26.6387 24.1386C26.4039 24.4908 26.1691 24.843 26.1691 25.3126Z" fill="white"/>
<path d="M29.339 29.7739V33.2961C29.926 33.1787 30.513 33.0613 30.8653 32.7091C31.2175 32.3569 31.4523 32.0046 31.4523 31.535C31.4523 31.0654 31.3349 30.7132 30.9827 30.4784C30.6305 30.2435 30.1608 30.0087 29.339 29.7739Z" fill="white"/>
<path d="M5.50572 27.3084C5.85794 21.5555 8.32346 16.1548 12.4327 12.163C21.3555 3.47501 35.5616 3.47501 44.4844 12.0456L42.1363 11.6934C40.8448 11.576 39.7882 12.3978 39.5534 13.5719C39.436 14.746 40.2578 15.92 41.4319 16.1548L49.4154 17.2115C49.5329 17.2115 49.6503 17.2115 49.7677 17.2115C50.2373 17.2115 50.7069 17.0941 51.1765 16.7419C51.6462 16.3896 51.9984 15.8026 51.9984 15.2156L53.055 7.232C53.1724 5.94053 52.3506 4.88388 51.1765 4.64907C49.8851 4.53167 48.8284 5.35351 48.5936 6.52756L48.2414 9.22789C43.0755 3.94464 36.266 1.0095 28.8695 0.89209C21.5903 1.0095 14.546 3.82723 9.2627 8.99308C4.33167 13.8067 1.39652 20.264 0.9269 27.0736C0.809495 28.365 1.74874 29.4217 3.0402 29.4217H3.15761C4.44907 29.4217 5.38832 28.4824 5.50572 27.3084Z" fill="white"/>
<path d="M53.9943 28.0128C52.8202 27.8954 51.6461 28.8347 51.6461 30.1261C51.2939 35.879 48.8284 41.2797 44.7192 45.2715C35.679 53.9595 21.4729 53.9595 12.5501 45.2715L15.133 45.5063C16.4244 45.6237 17.4811 44.6844 17.5985 43.5104C17.7159 42.2189 16.7767 41.1623 15.6026 41.0449L7.3842 40.223C6.79717 40.1056 6.21015 40.3404 5.74052 40.6927C5.2709 41.0449 5.03609 41.6319 4.91868 42.2189L4.09684 50.2025C3.97944 51.494 4.91868 52.5506 6.09274 52.668C6.21015 52.668 6.21015 52.668 6.32755 52.668C7.50161 52.668 8.44085 51.8462 8.55826 50.6721L8.79307 48.0892C14.1937 53.6073 21.3555 56.3076 28.3998 56.3076C35.3268 56.3076 42.2537 53.7247 47.6543 48.5588C52.5854 43.7452 55.5205 37.2879 55.9902 30.4784C56.1076 29.1869 55.1683 28.1302 53.9943 28.0128Z" fill="white"/>
</svg>
