<svg width="40" height="50" viewBox="0 0 40 50" fill="none" xmlns="http://www.w3.org/2000/svg">
<path d="M27.5 15H38.5L25 1.5V12.5C25 14 26 15 27.5 15ZM27.5 20C23.25 20 20 16.75 20 12.5V0H7.5C3.25 0 0 3.25 0 7.5V42.5C0 46.75 3.25 50 7.5 50H32.5C36.75 50 40 46.75 40 42.5V20H27.5ZM12.5 15H15C16.5 15 17.5 16 17.5 17.5C17.5 19 16.5 20 15 20H12.5C11 20 10 19 10 17.5C10 16 11 15 12.5 15ZM27.5 40H12.5C11 40 10 39 10 37.5C10 36 11 35 12.5 35H27.5C29 35 30 36 30 37.5C30 39 29 40 27.5 40ZM27.5 30H12.5C11 30 10 29 10 27.5C10 26 11 25 12.5 25H27.5C29 25 30 26 30 27.5C30 29 29 30 27.5 30Z" fill="white"/>
</svg>
