<svg width="21" height="15" viewBox="0 0 21 15" fill="none" xmlns="http://www.w3.org/2000/svg">
<path d="M6.41524 7.5L0 12.2048V2.79519L6.41524 7.5ZM14.5848 7.5L21 12.2048V2.79519L14.5848 7.5ZM13.6474 8.18942L10.7791 10.2923C10.6946 10.3529 10.5973 10.3846 10.5 10.3846C10.4027 10.3846 10.3054 10.3529 10.2209 10.2923L7.35256 8.18942L0.425122 13.2692L0.0230488 13.5635C0.148537 14.3769 0.778537 15 1.53659 15H19.4634C20.2215 15 20.8515 14.3798 20.977 13.5635L20.5723 13.2692L13.6474 8.18942ZM10.5 9.11827L20.5723 1.73077L20.977 1.43654C20.8515 0.620192 20.2215 0 19.4634 0H1.53659C0.778537 0 0.148537 0.623077 0.0230488 1.43654L0.425122 1.73077L10.5 9.11827Z" fill="#FAFAFA"/>
</svg>
